# xmcd
#
# Track frame offsets: 
#        150
#        10228
#        23138
#        47949
#
# Disc length: 1238 seconds
#
# Revision: 0
# Processed by: cddbd v1.5.2PL0 Copyright (c) Steve Scherf et al.
# Submitted via: ExactAudioCopy v0.99pb3
#
DISCID=2904d404
DTITLE=The Von Bondies - C'mon C'mon
DYEAR=2003
DGENRE=Sire
TTITLE0=C'mon C'mon
TTITLE1=Love Is Like A Drug
TTITLE2=Heartlessly Hopeless
TTITLE3=DATA
EXTD=
EXTT0=
EXTT1=
EXTT2=
EXTT3=
PLAYORDER=
